<svg width="12" height="11" viewBox="0 0 12 11" fill="none" xmlns="http://www.w3.org/2000/svg">
<path d="M3.2721 0.83205C3.24597 0.80583 3.21492 0.785026 3.18073 0.770831C3.14655 0.756636 3.10989 0.749329 3.07288 0.749329C3.03586 0.749329 2.99921 0.756636 2.96502 0.770831C2.93084 0.785026 2.89979 0.80583 2.87366 0.83205L1.38116 2.31588L0.849128 1.79744C0.822999 1.77122 0.791951 1.75042 0.757764 1.73622C0.723578 1.72203 0.686926 1.71472 0.649909 1.71472C0.612893 1.71472 0.57624 1.72203 0.542054 1.73622C0.507868 1.75042 0.47682 1.77122 0.45069 1.79744L0.0827218 2.16588C0.0565018 2.19201 0.0356977 2.22306 0.0215024 2.25724C0.00730715 2.29143 0 2.32808 0 2.3651C0 2.40211 0.00730715 2.43877 0.0215024 2.47295C0.0356977 2.50714 0.0565018 2.53819 0.0827218 2.56432L1.19811 3.67525C1.25379 3.72818 1.32767 3.75769 1.40448 3.75769C1.48129 3.75769 1.55517 3.72818 1.61085 3.67525L1.97624 3.30916L3.66842 1.61721C3.72115 1.56444 3.75094 1.49301 3.75134 1.41842C3.75173 1.34383 3.7227 1.27209 3.67053 1.21877L3.2721 0.83205ZM3.2721 4.56307C3.24597 4.53685 3.21492 4.51604 3.18073 4.50185C3.14655 4.48765 3.10989 4.48034 3.07288 4.48034C3.03586 4.48034 2.99921 4.48765 2.96502 4.50185C2.93084 4.51604 2.89979 4.53685 2.87366 4.56307L1.38116 6.0565L0.849128 5.53853C0.822999 5.51231 0.791951 5.49151 0.757764 5.47731C0.723578 5.46312 0.686926 5.45581 0.649909 5.45581C0.612893 5.45581 0.57624 5.46312 0.542054 5.47731C0.507868 5.49151 0.47682 5.51231 0.45069 5.53853L0.0827218 5.90627C0.0565018 5.9324 0.0356977 5.96345 0.0215024 5.99763C0.00730715 6.03182 0 6.06847 0 6.10549C0 6.1425 0.00730715 6.17916 0.0215024 6.21334C0.0356977 6.24753 0.0565018 6.27858 0.0827218 6.30471L1.1953 7.41799C1.25094 7.47089 1.32477 7.5004 1.40155 7.5004C1.47833 7.5004 1.55216 7.47089 1.6078 7.41799L1.97577 7.05025L3.66796 5.3576C3.72048 5.3052 3.75017 5.23417 3.75057 5.15998C3.75096 5.0858 3.72203 5.01446 3.67007 4.9615L3.2721 4.56307ZM1.49999 8.62502C0.879128 8.62502 0.361159 9.12892 0.361159 9.75002C0.361159 10.3711 0.879597 10.875 1.49999 10.875C1.79836 10.875 2.0845 10.7565 2.29548 10.5455C2.50646 10.3345 2.62499 10.0484 2.62499 9.75002C2.62499 9.45165 2.50646 9.1655 2.29548 8.95452C2.0845 8.74354 1.79836 8.62502 1.49999 8.62502ZM11.625 9.00002H4.87499C4.77553 9.00002 4.68015 9.03953 4.60982 9.10985C4.5395 9.18018 4.49999 9.27556 4.49999 9.37502V10.125C4.49999 10.2245 4.5395 10.3199 4.60982 10.3902C4.68015 10.4605 4.77553 10.5 4.87499 10.5H11.625C11.7244 10.5 11.8198 10.4605 11.8902 10.3902C11.9605 10.3199 12 10.2245 12 10.125V9.37502C12 9.27556 11.9605 9.18018 11.8902 9.10985C11.8198 9.03953 11.7244 9.00002 11.625 9.00002ZM11.625 1.50002H4.87499C4.77553 1.50002 4.68015 1.53953 4.60982 1.60985C4.5395 1.68018 4.49999 1.77556 4.49999 1.87502V2.62502C4.49999 2.72448 4.5395 2.81986 4.60982 2.89018C4.68015 2.96051 4.77553 3.00002 4.87499 3.00002H11.625C11.7244 3.00002 11.8198 2.96051 11.8902 2.89018C11.9605 2.81986 12 2.72448 12 2.62502V1.87502C12 1.77556 11.9605 1.68018 11.8902 1.60985C11.8198 1.53953 11.7244 1.50002 11.625 1.50002ZM11.625 5.25002H4.87499C4.77553 5.25002 4.68015 5.28953 4.60982 5.35985C4.5395 5.43018 4.49999 5.52556 4.49999 5.62502V6.37502C4.49999 6.47447 4.5395 6.56986 4.60982 6.64018C4.68015 6.71051 4.77553 6.75002 4.87499 6.75002H11.625C11.7244 6.75002 11.8198 6.71051 11.8902 6.64018C11.9605 6.56986 12 6.47447 12 6.37502V5.62502C12 5.52556 11.9605 5.43018 11.8902 5.35985C11.8198 5.28953 11.7244 5.25002 11.625 5.25002Z" fill="#666666"/>
</svg>
