<svg width="8" height="10" viewBox="0 0 8 10" fill="none" xmlns="http://www.w3.org/2000/svg">
<path d="M7.14286 0H0.857143C0.4 0 0 0.4375 0 0.9375V9.0625C0 9.5625 0.4 10 0.857143 10H7.14286C7.6 10 8 9.5625 8 9.0625V0.9375C8 0.4375 7.6 0 7.14286 0ZM2.28571 8.5C2.28571 8.625 2.17143 8.75 2.05714 8.75H1.37143C1.25714 8.75 1.14286 8.625 1.14286 8.5V7.75C1.14286 7.625 1.25714 7.5 1.37143 7.5H2.05714C2.17143 7.5 2.28571 7.625 2.28571 7.75V8.5ZM2.28571 6C2.28571 6.125 2.17143 6.25 2.05714 6.25H1.37143C1.25714 6.25 1.14286 6.125 1.14286 6V5.25C1.14286 5.125 1.25714 5 1.37143 5H2.05714C2.17143 5 2.28571 5.125 2.28571 5.25V6ZM4.57143 8.5C4.57143 8.625 4.45714 8.75 4.34286 8.75H3.65714C3.54286 8.75 3.42857 8.625 3.42857 8.5V7.75C3.42857 7.625 3.54286 7.5 3.65714 7.5H4.34286C4.45714 7.5 4.57143 7.625 4.57143 7.75V8.5ZM4.57143 6C4.57143 6.125 4.45714 6.25 4.34286 6.25H3.65714C3.54286 6.25 3.42857 6.125 3.42857 6V5.25C3.42857 5.125 3.54286 5 3.65714 5H4.34286C4.45714 5 4.57143 5.125 4.57143 5.25V6ZM6.85714 8.5C6.85714 8.625 6.74286 8.75 6.62857 8.75H5.94286C5.82857 8.75 5.71429 8.625 5.71429 8.5V5.25C5.71429 5.125 5.82857 5 5.94286 5H6.62857C6.74286 5 6.85714 5.125 6.85714 5.25V8.5ZM6.85714 3.5C6.85714 3.625 6.74286 3.75 6.62857 3.75H1.37143C1.25714 3.75 1.14286 3.625 1.14286 3.5V1.5C1.14286 1.375 1.25714 1.25 1.37143 1.25H6.62857C6.74286 1.25 6.85714 1.375 6.85714 1.5V3.5Z" fill="#666666"/>
</svg>
