<svg width="8" height="9" viewBox="0 0 8 9" fill="none" xmlns="http://www.w3.org/2000/svg">
<path d="M0 8.15625C0 8.62207 0.383929 9 0.857143 9H7.14286C7.61607 9 8 8.62207 8 8.15625V3.375H0V8.15625ZM5.71429 4.71094C5.71429 4.59492 5.81071 4.5 5.92857 4.5H6.64286C6.76071 4.5 6.85714 4.59492 6.85714 4.71094V5.41406C6.85714 5.53008 6.76071 5.625 6.64286 5.625H5.92857C5.81071 5.625 5.71429 5.53008 5.71429 5.41406V4.71094ZM5.71429 6.96094C5.71429 6.84492 5.81071 6.75 5.92857 6.75H6.64286C6.76071 6.75 6.85714 6.84492 6.85714 6.96094V7.66406C6.85714 7.78008 6.76071 7.875 6.64286 7.875H5.92857C5.81071 7.875 5.71429 7.78008 5.71429 7.66406V6.96094ZM3.42857 4.71094C3.42857 4.59492 3.525 4.5 3.64286 4.5H4.35714C4.475 4.5 4.57143 4.59492 4.57143 4.71094V5.41406C4.57143 5.53008 4.475 5.625 4.35714 5.625H3.64286C3.525 5.625 3.42857 5.53008 3.42857 5.41406V4.71094ZM3.42857 6.96094C3.42857 6.84492 3.525 6.75 3.64286 6.75H4.35714C4.475 6.75 4.57143 6.84492 4.57143 6.96094V7.66406C4.57143 7.78008 4.475 7.875 4.35714 7.875H3.64286C3.525 7.875 3.42857 7.78008 3.42857 7.66406V6.96094ZM1.14286 4.71094C1.14286 4.59492 1.23929 4.5 1.35714 4.5H2.07143C2.18929 4.5 2.28571 4.59492 2.28571 4.71094V5.41406C2.28571 5.53008 2.18929 5.625 2.07143 5.625H1.35714C1.23929 5.625 1.14286 5.53008 1.14286 5.41406V4.71094ZM1.14286 6.96094C1.14286 6.84492 1.23929 6.75 1.35714 6.75H2.07143C2.18929 6.75 2.28571 6.84492 2.28571 6.96094V7.66406C2.28571 7.78008 2.18929 7.875 2.07143 7.875H1.35714C1.23929 7.875 1.14286 7.78008 1.14286 7.66406V6.96094ZM7.14286 1.125H6.28571V0.28125C6.28571 0.126562 6.15714 0 6 0H5.42857C5.27143 0 5.14286 0.126562 5.14286 0.28125V1.125H2.85714V0.28125C2.85714 0.126562 2.72857 0 2.57143 0H2C1.84286 0 1.71429 0.126562 1.71429 0.28125V1.125H0.857143C0.383929 1.125 0 1.50293 0 1.96875V2.8125H8V1.96875C8 1.50293 7.61607 1.125 7.14286 1.125Z" fill="#999999"/>
</svg>
