<svg width="10" height="8" viewBox="0 0 10 8" fill="none" xmlns="http://www.w3.org/2000/svg">
<path d="M0 2.24024V1.92027C0 1.6552 0.209863 1.44033 0.46875 1.44033H7.5V0.480428C7.5 0.053133 8.00584 -0.160344 8.30021 0.141044L9.86271 1.74087C10.0458 1.92831 10.0458 2.2322 9.86271 2.41962L8.30021 4.01945C8.00695 4.31966 7.5 4.10916 7.5 3.68009V2.72019H0.46875C0.209863 2.72019 0 2.50531 0 2.24024ZM9.53125 5.27992H2.5V4.32002C2.5 3.89379 1.99488 3.67849 1.69979 3.98064L0.137285 5.58047C-0.0457617 5.76791 -0.0457617 6.07179 0.137285 6.25921L1.69979 7.85904C1.9933 8.15955 2.5 7.94838 2.5 7.51968V6.55978H9.53125C9.79014 6.55978 10 6.34491 10 6.07983V5.75987C10 5.4948 9.79014 5.27992 9.53125 5.27992Z" fill="#F1A91E"/>
</svg>
