<svg width="8" height="5" viewBox="0 0 8 5" fill="none" xmlns="http://www.w3.org/2000/svg">
<path d="M7.82227 0.570312C7.87435 0.622396 7.90039 0.682291 7.90039 0.75C7.90039 0.817708 7.87435 0.877604 7.82227 0.929687L4.18164 4.57031C4.12956 4.6224 4.06966 4.64844 4.00195 4.64844C3.93424 4.64844 3.87435 4.6224 3.82227 4.57031L0.181641 0.929687C0.129557 0.877604 0.103516 0.817708 0.103516 0.75C0.103516 0.682291 0.129557 0.622396 0.181641 0.570312L0.572266 0.179687C0.624349 0.127604 0.684245 0.101562 0.751953 0.101562C0.819662 0.101562 0.879557 0.127604 0.931641 0.179687L4.00195 3.25L7.07227 0.179687C7.12435 0.127604 7.18425 0.101562 7.25195 0.101562C7.31966 0.101562 7.37956 0.127604 7.43164 0.179687L7.82227 0.570312Z" fill="#2C84BC"/>
</svg>
