<svg width="8" height="5" viewBox="0 0 8 5" fill="none" xmlns="http://www.w3.org/2000/svg">
<path d="M0.177734 4.42969C0.12565 4.3776 0.0996087 4.31771 0.0996087 4.25C0.0996087 4.18229 0.12565 4.1224 0.177734 4.07031L3.81836 0.429688C3.87044 0.377604 3.93034 0.351563 3.99805 0.351563C4.06576 0.351563 4.12565 0.377604 4.17773 0.429688L7.81836 4.07031C7.87044 4.1224 7.89648 4.18229 7.89648 4.25C7.89648 4.31771 7.87044 4.3776 7.81836 4.42969L7.42773 4.82031C7.37565 4.8724 7.31576 4.89844 7.24805 4.89844C7.18034 4.89844 7.12044 4.8724 7.06836 4.82031L3.99805 1.75L0.927734 4.82031C0.875651 4.8724 0.815755 4.89844 0.748046 4.89844C0.680338 4.89844 0.620442 4.8724 0.568359 4.82031L0.177734 4.42969Z" fill="#2C84BC"/>
</svg>
