<svg width="10" height="13" viewBox="0 0 10 13" fill="none" xmlns="http://www.w3.org/2000/svg">
<path d="M8.75 1.625H6.66667C6.66667 0.728711 5.91927 0 5 0C4.08073 0 3.33333 0.728711 3.33333 1.625H1.25C0.559896 1.625 0 2.1709 0 2.84375V11.7812C0 12.4541 0.559896 13 1.25 13H8.75C9.4401 13 10 12.4541 10 11.7812V2.84375C10 2.1709 9.4401 1.625 8.75 1.625ZM2.5 10.7656C2.15365 10.7656 1.875 10.4939 1.875 10.1562C1.875 9.81855 2.15365 9.54688 2.5 9.54688C2.84635 9.54688 3.125 9.81855 3.125 10.1562C3.125 10.4939 2.84635 10.7656 2.5 10.7656ZM2.5 8.32812C2.15365 8.32812 1.875 8.05645 1.875 7.71875C1.875 7.38105 2.15365 7.10938 2.5 7.10938C2.84635 7.10938 3.125 7.38105 3.125 7.71875C3.125 8.05645 2.84635 8.32812 2.5 8.32812ZM2.5 5.89062C2.15365 5.89062 1.875 5.61895 1.875 5.28125C1.875 4.94355 2.15365 4.67188 2.5 4.67188C2.84635 4.67188 3.125 4.94355 3.125 5.28125C3.125 5.61895 2.84635 5.89062 2.5 5.89062ZM5 1.01562C5.34635 1.01562 5.625 1.2873 5.625 1.625C5.625 1.9627 5.34635 2.23438 5 2.23438C4.65365 2.23438 4.375 1.9627 4.375 1.625C4.375 1.2873 4.65365 1.01562 5 1.01562ZM8.33333 10.3594C8.33333 10.4711 8.23958 10.5625 8.125 10.5625H4.375C4.26042 10.5625 4.16667 10.4711 4.16667 10.3594V9.95312C4.16667 9.84141 4.26042 9.75 4.375 9.75H8.125C8.23958 9.75 8.33333 9.84141 8.33333 9.95312V10.3594ZM8.33333 7.92188C8.33333 8.03359 8.23958 8.125 8.125 8.125H4.375C4.26042 8.125 4.16667 8.03359 4.16667 7.92188V7.51562C4.16667 7.40391 4.26042 7.3125 4.375 7.3125H8.125C8.23958 7.3125 8.33333 7.40391 8.33333 7.51562V7.92188ZM8.33333 5.48438C8.33333 5.59609 8.23958 5.6875 8.125 5.6875H4.375C4.26042 5.6875 4.16667 5.59609 4.16667 5.48438V5.07812C4.16667 4.96641 4.26042 4.875 4.375 4.875H8.125C8.23958 4.875 8.33333 4.96641 8.33333 5.07812V5.48438Z" fill="#666666"/>
</svg>
