<svg width="8" height="8" viewBox="0 0 8 8" fill="none" xmlns="http://www.w3.org/2000/svg">
<path d="M4 0C1.79032 0 0 1.79032 0 4C0 6.20968 1.79032 8 4 8C6.20968 8 8 6.20968 8 4C8 1.79032 6.20968 0 4 0ZM5.49177 5.04839L5.16919 5.45161C5.14802 5.47808 5.12185 5.50012 5.09216 5.51647C5.06248 5.53282 5.02986 5.54316 4.99617 5.54691C4.96249 5.55065 4.9284 5.54772 4.89585 5.53829C4.86329 5.52886 4.83292 5.51311 4.80645 5.49194L3.72581 4.69C3.6503 4.62955 3.58935 4.55289 3.54747 4.4657C3.5056 4.37851 3.48386 4.28302 3.48387 4.18629V1.67742C3.48387 1.60898 3.51106 1.54334 3.55946 1.49494C3.60785 1.44654 3.67349 1.41935 3.74194 1.41935H4.25806C4.32651 1.41935 4.39215 1.44654 4.44054 1.49494C4.48894 1.54334 4.51613 1.60898 4.51613 1.67742V4L5.45161 4.68548C5.47809 4.70667 5.50013 4.73286 5.51648 4.76257C5.53283 4.79227 5.54317 4.82491 5.5469 4.85861C5.55063 4.89232 5.54768 4.92642 5.53822 4.95899C5.52876 4.99155 5.51298 5.02193 5.49177 5.04839Z" fill="#999999"/>
</svg>
