<svg width="12" height="12" viewBox="0 0 12 12" fill="none" xmlns="http://www.w3.org/2000/svg">
<path d="M11.1875 5.67711C11.1931 8.70744 8.72181 11.1854 5.69149 11.1875C4.38269 11.1884 3.1805 10.7322 2.23576 9.96971C1.9901 9.77145 1.97174 9.40328 2.19498 9.18004L2.44485 8.93017C2.63577 8.73924 2.94058 8.71835 3.15211 8.88617C3.84815 9.4385 4.72901 9.76816 5.6875 9.76816C7.94305 9.76816 9.76814 7.94271 9.76814 5.68751C9.76814 3.43195 7.94269 1.60686 5.6875 1.60686C4.60493 1.60686 3.62169 2.02754 2.89163 2.71422L4.01723 3.83982C4.24077 4.06337 4.08245 4.44557 3.76633 4.44557H0.542338C0.346357 4.44557 0.1875 4.28672 0.1875 4.09073V0.866729C0.1875 0.550612 0.569705 0.392287 0.793253 0.615813L1.8882 1.71076C2.8756 0.76713 4.21385 0.1875 5.6875 0.1875C8.72159 0.1875 11.1819 2.64432 11.1875 5.67711ZM7.17533 7.42434L7.39318 7.14424C7.57366 6.91219 7.53186 6.57778 7.29981 6.39732L6.39717 5.69525V3.38105C6.39717 3.08709 6.15888 2.8488 5.86491 2.8488H5.51008C5.21611 2.8488 4.97782 3.08709 4.97782 3.38105V6.38945L6.42842 7.51771C6.66046 7.69816 6.99485 7.65638 7.17533 7.42434Z" fill="#666666"/>
</svg>
