<?xml version="1.0" encoding="UTF-8" standalone="no"?>
<!-- Generator: Adobe Illustrator 24.2.1, SVG Export Plug-In . SVG Version: 6.00 Build 0)  -->
<svg version="1.1" id="UC_EXCHANGE_ALT_SOLID_N_ICON" xmlns="http://www.w3.org/2000/svg" xmlns:xlink="http://www.w3.org/1999/xlink" x="0px" y="0px" viewBox="0 0 60 60" style="enable-background:new 0 0 60 60;" xml:space="preserve">
  <path fill="#CF1715" class="st0" d="M54,30c0,13.3-10.7,24-24,24S6,43.3,6,30S16.7,6,30,6S54,16.7,54,30z M30,34.8c-2.5,0-4.4,2-4.4,4.5
	c0,2.5,2,4.4,4.5,4.4s4.4-2,4.4-4.4C34.5,36.8,32.5,34.8,30,34.8L30,34.8z M25.8,18.8L26.5,32c0,0.6,0.5,1.1,1.2,1.1h4.7
	c0.6,0,1.1-0.5,1.2-1.1l0.7-13.2c0-0.6-0.5-1.2-1.1-1.2c0,0,0,0,0,0h-6.2C26.3,17.6,25.8,18.1,25.8,18.8
	C25.8,18.8,25.8,18.8,25.8,18.8L25.8,18.8z" />
</svg>
