<svg width="10" height="12" viewBox="0 0 10 12" fill="none" xmlns="http://www.w3.org/2000/svg">
<rect x="0.5" y="2.5" width="9" height="9" fill="white" stroke="#666666"/>
<path d="M3.00005 1.85721C2.50005 1.85721 2.00014 2.14291 2.00005 2.4286L2 3.5H7.99996L8.00001 2.4286C8.00005 2.14291 7.50002 1.85721 7.00002 1.85721L5.49999 1.85716C5.49999 1.85716 5.49994 1.91738 5.49997 1.45869C5.49999 1 4.99999 1 4.99999 1C4.99999 1 4.5 1 4.5 1.45867V1.85716L3.00005 1.85721Z" fill="#666666" stroke="#666666"/>
<rect x="3" y="5" width="4" height="1" fill="#666666"/>
<rect x="3" y="7" width="4" height="1" fill="#666666"/>
<rect x="3" y="9" width="4" height="1" fill="#666666"/>
</svg>
