<svg width="10" height="10" viewBox="0 0 10 10" fill="none" xmlns="http://www.w3.org/2000/svg">
<path d="M5.69196 5.8404C6.18304 5.34933 6.42857 4.75967 6.42857 4.07143C6.42857 3.38318 6.18304 2.79539 5.69196 2.30804C5.20461 1.81696 4.61682 1.57143 3.92857 1.57143C3.24033 1.57143 2.65067 1.81696 2.1596 2.30804C1.67225 2.79539 1.42857 3.38318 1.42857 4.07143C1.42857 4.75967 1.67225 5.34933 2.1596 5.8404C2.65067 6.32775 3.24033 6.57143 3.92857 6.57143C4.61682 6.57143 5.20461 6.32775 5.69196 5.8404ZM9.28571 8.71429C9.28571 8.90774 9.21503 9.07515 9.07366 9.21652C8.93229 9.35789 8.76488 9.42857 8.57143 9.42857C8.37054 9.42857 8.20313 9.35789 8.0692 9.21652L6.15513 7.30804C5.48921 7.76935 4.74702 8 3.92857 8C3.39658 8 2.8869 7.89769 2.39955 7.69308C1.91592 7.48475 1.4974 7.20573 1.14397 6.85603C0.794271 6.5026 0.515253 6.08408 0.30692 5.60045C0.102307 5.1131 0 4.60342 0 4.07143C0 3.53943 0.102307 3.03162 0.30692 2.54799C0.515253 2.06064 0.794271 1.64211 1.14397 1.29241C1.4974 0.938988 1.91592 0.65997 2.39955 0.455357C2.8869 0.247023 3.39658 0.142857 3.92857 0.142857C4.46057 0.142857 4.96838 0.247023 5.45201 0.455357C5.93936 0.65997 6.35789 0.938988 6.70759 1.29241C7.06101 1.64211 7.34003 2.06064 7.54464 2.54799C7.75298 3.03162 7.85714 3.53943 7.85714 4.07143C7.85714 4.88988 7.62649 5.63207 7.16518 6.29799L9.07924 8.21205C9.21689 8.3497 9.28571 8.51711 9.28571 8.71429Z" fill="#737373"/>
</svg>
