<svg width="8" height="8" viewBox="0 0 8 8" fill="none" xmlns="http://www.w3.org/2000/svg">
<path d="M0 3.93934V0.75C0 0.335781 0.335781 0 0.75 0H3.93934C4.13826 1.04012e-06 4.32902 0.0790194 4.46967 0.219672L7.78033 3.53033C8.07322 3.82322 8.07322 4.29809 7.78033 4.59098L4.59098 7.78033C4.29809 8.07322 3.82322 8.07322 3.53033 7.78033L0.219672 4.46967C0.0790194 4.32902 1.04012e-06 4.13826 0 3.93934H0ZM1.75 1C1.33578 1 1 1.33578 1 1.75C1 2.16422 1.33578 2.5 1.75 2.5C2.16422 2.5 2.5 2.16422 2.5 1.75C2.5 1.33578 2.16422 1 1.75 1Z" fill="#999999"/>
</svg>
