<svg width="11" height="11" viewBox="0 0 11 11" fill="none" xmlns="http://www.w3.org/2000/svg">
<path d="M2.35167 5.24305L5.24303 2.35211L4.29514 1.40422L2.96999 2.72938C2.95418 2.74521 2.93541 2.75777 2.91475 2.76634C2.89409 2.77491 2.87194 2.77932 2.84957 2.77932C2.8272 2.77932 2.80505 2.77491 2.78438 2.76634C2.76372 2.75777 2.74495 2.74521 2.72915 2.72938L2.48831 2.48854C2.42171 2.42193 2.42171 2.31408 2.48831 2.2477L3.81346 0.92254L3.09073 0.199591C2.82454 -0.0666004 2.39313 -0.0666004 2.12694 0.199591L0.199576 2.12695C-0.0664001 2.39315 -0.0666149 2.82455 0.199576 3.09074L2.35167 5.24305ZM10.6977 2.73367C11.1007 2.33063 11.1005 1.67729 10.6977 1.27424L9.72553 0.302072C9.32249 -0.100975 8.66893 -0.100975 8.26567 0.302072L7.27696 1.29057L9.70899 3.7226L10.6977 2.73367ZM6.79077 1.77697L0.409908 8.15697L0.00686162 10.4653C-0.0474938 10.7766 0.223639 11.0477 0.535162 10.9929L2.84366 10.5881L9.2228 4.20879L6.79077 1.77697ZM10.8004 7.90926L10.0777 7.18652L8.75251 8.51168C8.68591 8.57828 8.57805 8.57828 8.51167 8.51168L8.27083 8.27084C8.20444 8.20424 8.20444 8.09639 8.27083 8.03L9.59598 6.70484L8.64766 5.75653L5.7563 8.64746L7.90925 10.8002C8.17544 11.0664 8.60684 11.0664 8.87303 10.8002L10.8004 8.87305C11.0666 8.60686 11.0666 8.17545 10.8004 7.90926Z" fill="#666666"/>
</svg>
