<svg width="14" height="12" viewBox="0 0 14 12" fill="none" xmlns="http://www.w3.org/2000/svg">
<path d="M7.85714 9.92187V8.64955C7.85714 8.58705 7.83482 8.53571 7.79018 8.49554C7.75 8.45089 7.70089 8.42857 7.64286 8.42857H6.35714C6.29911 8.42857 6.24777 8.45089 6.20313 8.49554C6.16295 8.53571 6.14286 8.58705 6.14286 8.64955V9.92187C6.14286 9.98437 6.16295 10.0379 6.20313 10.0826C6.24777 10.1228 6.29911 10.1429 6.35714 10.1429H7.64286C7.70089 10.1429 7.75 10.1228 7.79018 10.0826C7.83482 10.0379 7.85714 9.98437 7.85714 9.92187ZM7.84375 7.41741L7.96429 4.34375C7.96429 4.29018 7.94196 4.24777 7.89732 4.21652C7.83929 4.16741 7.78571 4.14286 7.73661 4.14286H6.26339C6.21429 4.14286 6.16071 4.16741 6.10268 4.21652C6.05804 4.24777 6.03571 4.29464 6.03571 4.35714L6.14955 7.41741C6.14955 7.46205 6.17188 7.5 6.21652 7.53125C6.26116 7.55804 6.31473 7.57143 6.37723 7.57143H7.61607C7.67857 7.57143 7.72991 7.55804 7.77009 7.53125C7.81473 7.5 7.83929 7.46205 7.84375 7.41741ZM7.75 1.16295L12.8929 10.5915C13.0491 10.8728 13.0446 11.154 12.8795 11.4353C12.8036 11.5647 12.6987 11.6674 12.5647 11.7433C12.4353 11.8192 12.2946 11.8571 12.1429 11.8571H1.85714C1.70536 11.8571 1.5625 11.8192 1.42857 11.7433C1.29911 11.6674 1.19643 11.5647 1.12054 11.4353C0.955357 11.154 0.950893 10.8728 1.10714 10.5915L6.25 1.16295C6.32589 1.02455 6.4308 0.915178 6.56473 0.834821C6.69866 0.754464 6.84375 0.714285 7 0.714285C7.15625 0.714285 7.30134 0.754464 7.43527 0.834821C7.5692 0.915178 7.67411 1.02455 7.75 1.16295Z" fill="#F1A91E"/>
</svg>
