<svg id="Layer_1" data-name="Layer 1" xmlns="http://www.w3.org/2000/svg" viewBox="0 0 179 18.34"><defs><style>.cls-1{fill:#fdb515;}.cls-2{fill:#003262;}</style></defs><title>CalCentral_logo_whitebg</title><path class="cls-1" d="M24.54,9.14a8.83,8.83,0,0,0-4.87-1.4c-3.81,0-6.61,2.72-6.61,7.48s2.66,7.5,6.67,7.5a8.44,8.44,0,0,0,4.9-1.57L25,22.92a10,10,0,0,1-5.26,1.42c-5.07,0-8.46-3.52-8.46-9.07S14.8,6.12,19.7,6.12a10.85,10.85,0,0,1,5.4,1.42ZM43.69,24H41.87L40,19H32.1l-1.85,5H28.43l6.64-17.5h2.1ZM36.08,8.24l-3.36,9.1h6.69ZM48,24V6.48h1.8V22.3h8.65V24Z" transform="translate(-11.24 -6.06)"/><path class="cls-2" d="M75.75,10.4A8.16,8.16,0,0,0,71.16,9c-3.42,0-5.68,2.35-5.68,6.16s2.21,6.3,5.74,6.3A8.5,8.5,0,0,0,76,19.89L76.65,23a11.65,11.65,0,0,1-5.57,1.37c-5.38,0-9-3.39-9-9.13s3.67-9.21,9.13-9.21a12.2,12.2,0,0,1,5.66,1.37ZM82.39,24V6.48H94.32V9.36H85.75v4.4h7v2.88h-7V21.1h8.57V24Zm29.76-17.5h3.25V24.15h-3.64l-8.37-12.88V24h-3.25V6.48h3.72l8.29,12.74Zm17.62,3V24h-3.39V9.48h-5.85v-3h15.09v3ZM144.16,24h-3.42V6.48h6.13c4.43,0,6.78,2.1,6.78,5.32a5.09,5.09,0,0,1-3.78,5L154.46,24h-3.89l-3.9-6.41-2.52.17V24Zm2.52-9c2.1-.11,3.47-1.06,3.47-3s-1.37-2.68-3.81-2.68h-2.21v5.71Zm27.6,9h-3.44l-1.45-4.14h-7.06L160.9,24h-3.44l6.38-17.5H168L174.28,24ZM165.89,9.42,163.23,17h5.29Zm13,14.56V6.48h3.42V21h7.89v3Z" transform="translate(-11.24 -6.06)"/></svg>