<svg version="1.1" id="Layer_1" xmlns="http://www.w3.org/2000/svg" x="0px" y="0px"
	 viewBox="0 0 100 100" style="enable-background:new 0 0 100 100;" xml:space="preserve">
<style type="text/css">
	.st0{display:none;}
	.st1{display:inline;fill:#FDB515;stroke:#FDB515;stroke-linecap:round;stroke-linejoin:round;stroke-miterlimit:10;}
	.st2{display:inline;fill:none;stroke:#FFFFFF;stroke-width:3;stroke-linecap:round;stroke-linejoin:round;stroke-miterlimit:10;}
	.st3{fill:#003362;stroke:#003262;stroke-linecap:round;stroke-linejoin:round;stroke-miterlimit:10;}
	.st4{fill:none;stroke:#FFFFFF;stroke-width:3;stroke-linejoin:round;stroke-miterlimit:10;}
	.st5{display:inline;fill:#4D4D4D;stroke:#4D4D4D;stroke-linejoin:round;stroke-miterlimit:10;}
	.st6{display:inline;fill:none;stroke:#FFFFFF;stroke-width:3;stroke-linejoin:round;stroke-miterlimit:10;}
</style>
<g class="st0">
	<polygon class="st1" points="51.4,7.6 58.1,3.7 62.6,9.9 70.2,9.1 71.8,16.6 79.1,19 77.5,26.5 83.2,31.6 78.7,37.9 81.9,44.9
		75.2,48.7 75.2,56.4 67.5,57.2 64.4,64.2 57.1,61.8 51.4,67 45.7,61.8 38.4,64.2 35.3,57.2 27.6,56.4 27.7,48.7 21,44.9 24.2,37.9
		19.6,31.6 25.3,26.5 23.7,19 31,16.6 32.6,9.1 40.3,9.9 44.8,3.7 	"/>
	<polygon class="st1" points="30.2,60.3 30.2,95.2 51.4,80.1 51.4,72.1 44.8,65.9 36.6,68.8 33,60.7 	"/>
	<polygon class="st1" points="72.7,60.3 72.7,95.2 51.4,80.1 51.4,72.1 58.1,65.9 66.2,68.8 69.9,60.7 	"/>
	<polyline class="st2" points="31.1,30.7 29.9,24.8 35.6,23 36.8,17.1 42.7,17.8 46.2,12.9 51.4,15.9 	"/>
</g>
<g>
	<polygon class="st3" points="51.4,7.6 58.1,3.7 62.6,9.9 70.2,9.1 71.8,16.6 79.1,19 77.5,26.5 83.2,31.6 78.7,37.9 81.9,44.9
		75.2,48.7 75.2,56.4 67.5,57.2 64.4,64.2 57.1,61.8 51.4,67 45.7,61.8 38.4,64.2 35.3,57.2 27.6,56.4 27.7,48.7 21,44.9 24.2,37.9
		19.6,31.6 25.3,26.5 23.7,19 31,16.6 32.6,9.1 40.3,9.9 44.8,3.7 	"/>
	<polygon class="st3" points="30.2,60.3 30.2,95.2 51.4,80.1 51.4,72.1 44.8,65.9 36.6,68.8 33,60.7 	"/>
	<polygon class="st3" points="72.7,60.3 72.7,95.2 51.4,80.1 51.4,72.1 58.1,65.9 66.2,68.8 69.9,60.7 	"/>
	<polyline class="st4" points="31.1,30.7 29.9,24.8 35.6,23 36.8,17.1 42.7,17.8 46.2,12.9 51.4,15.9 	"/>
</g>
<g class="st0">
	<polygon class="st5" points="51.4,7.6 58.1,3.7 62.6,9.9 70.2,9.1 71.8,16.6 79.1,19 77.5,26.5 83.2,31.6 78.7,37.9 81.9,44.9
		75.2,48.7 75.2,56.4 67.5,57.2 64.4,64.2 57.1,61.8 51.4,67 45.7,61.8 38.4,64.2 35.3,57.2 27.6,56.4 27.7,48.7 21,44.9 24.2,37.9
		19.6,31.6 25.3,26.5 23.7,19 31,16.6 32.6,9.1 40.3,9.9 44.8,3.7 	"/>
	<polygon class="st5" points="30.2,60.3 30.2,95.2 51.4,80.1 51.4,72.1 44.8,65.9 36.6,68.8 33,60.7 	"/>
	<polygon class="st5" points="72.7,60.3 72.7,95.2 51.4,80.1 51.4,72.1 58.1,65.9 66.2,68.8 69.9,60.7 	"/>
	<polyline class="st6" points="31.1,30.7 29.9,24.8 35.6,23 36.8,17.1 42.7,17.8 46.2,12.9 51.4,15.9 	"/>
</g>
</svg>
