<?xml version="1.0" encoding="utf-8"?>
<!-- Generator: Adobe Illustrator 19.2.1, SVG Export Plug-In . SVG Version: 6.00 Build 0)  -->
<svg version="1.1" id="Layer_1" xmlns="http://www.w3.org/2000/svg" xmlns:xlink="http://www.w3.org/1999/xlink" x="0px" y="0px"
	 viewBox="0 0 210 125" style="enable-background:new 0 0 210 125;" xml:space="preserve">
<style type="text/css">
	.st0{fill:#E6E7E8;stroke:#9FBDC9;stroke-miterlimit:10;}
	.st1{opacity:0.3;fill:#D1D3D4;}
	.st2{fill:url(#SVGID_1_);stroke:#1C75BC;stroke-miterlimit:10;}
	.st3{fill:#2374A7;}
</style>
<path class="st0" d="M169,26H70.8V13.5c0-1.1-0.9-2-2-2h-62c-1.1,0-2,0.9-2,2V26H3c-1.1,0-2,0.9-2,2v91c0,1.1,0.9,2,2,2h166
	c1.1,0,2-0.9,2-2V28C171,26.9,170.1,26,169,26z"/>
<polygon class="st1" points="171,106.6 198.5,107 170.5,125 "/>
<linearGradient id="SVGID_1_" gradientUnits="userSpaceOnUse" x1="58.4673" y1="70.9085" x2="153.4673" y2="70.9085" gradientTransform="matrix(4.489700e-11 -1 1 4.489700e-11 15.0915 163.9085)">
	<stop  offset="0" style="stop-color:#2484C6"/>
	<stop  offset="1" style="stop-color:#93CCEF"/>
</linearGradient>
<path class="st2" d="M171,32v91c0,1.1-0.9,2-2,2H3c-1.1,0-2-0.9-2-2V32c0-1.1,0.9-2,2-2h166C170.1,30,171,30.9,171,32z"/>
<g>
	<path class="st3" d="M13.4,24v-8.6h2.8c1.1,0,1.7,0,2.1,0.1c0.5,0.1,0.9,0.4,1.2,0.8s0.5,1,0.5,1.7c0,0.5-0.1,1-0.3,1.3
		s-0.4,0.6-0.7,0.8s-0.6,0.3-0.9,0.4c-0.4,0.1-1,0.1-1.8,0.1h-1.1V24H13.4z M15.1,16.9v2.4h0.9c0.7,0,1.1,0,1.4-0.1s0.4-0.2,0.5-0.4
		s0.2-0.4,0.2-0.7c0-0.3-0.1-0.6-0.3-0.8s-0.4-0.3-0.7-0.4c-0.2,0-0.6-0.1-1.2-0.1H15.1z"/>
	<path class="st3" d="M21.4,24v-8.6H25c0.9,0,1.6,0.1,2,0.2s0.7,0.4,1,0.8s0.4,0.8,0.4,1.4c0,0.6-0.2,1.2-0.6,1.6s-0.9,0.7-1.7,0.8
		c0.4,0.2,0.7,0.5,0.9,0.7s0.6,0.7,1,1.4l1,1.7H27l-1.3-1.9c-0.4-0.7-0.8-1.1-0.9-1.3s-0.3-0.3-0.5-0.4s-0.5-0.1-0.9-0.1h-0.4V24
		H21.4z M23.1,19h1.3c0.8,0,1.4,0,1.6-0.1s0.4-0.2,0.5-0.4s0.2-0.4,0.2-0.6c0-0.3-0.1-0.5-0.2-0.7s-0.4-0.3-0.7-0.3
		c-0.1,0-0.6,0-1.3,0h-1.4V19z"/>
	<path class="st3" d="M30,24v-8.6h1.7V24H30z"/>
	<path class="st3" d="M35.6,24l-3.1-8.6h1.9l2.2,6.4l2.1-6.4h1.8L37.4,24H35.6z"/>
	<path class="st3" d="M48.2,24h-1.9l-0.8-2h-3.4l-0.7,2h-1.8l3.3-8.6h1.8L48.2,24z M45,20.6l-1.2-3.2l-1.2,3.2H45z"/>
	<path class="st3" d="M50.2,24v-7.1h-2.5v-1.5h6.8v1.5h-2.5V24H50.2z"/>
	<path class="st3" d="M55.6,24v-8.6H62v1.5h-4.6v1.9h4.3v1.4h-4.3v2.3h4.8V24H55.6z"/>
</g>
<g>
</g>
<g>
</g>
<g>
</g>
<g>
</g>
<g>
</g>
<g>
</g>
</svg>
